<?xml version="1.0" standalone="no"?>
<!DOCTYPE svg PUBLIC "-//W3C//DTD SVG 20010904//EN"
 "http://www.w3.org/TR/2001/REC-SVG-20010904/DTD/svg10.dtd">
<svg version="1.0" xmlns="http://www.w3.org/2000/svg"
 width="2048.000000pt" height="2048.000000pt" viewBox="0 0 2048.000000 2048.000000"
 preserveAspectRatio="xMidYMid meet">

<g transform="translate(0.000000,2048.000000) scale(0.100000,-0.100000)"
fill="#000000" stroke="none">
<path d="M9790 19764 c-674 -34 -1232 -114 -1815 -260 -2047 -511 -3904 -1709
-5246 -3384 -593 -740 -1081 -1587 -1414 -2455 -384 -999 -581 -1892 -645
-2925 -14 -220 -14 -850 0 -1075 84 -1379 423 -2652 1025 -3855 553 -1105
1261 -2019 2240 -2890 505 -449 1027 -820 1640 -1163 556 -311 1235 -598 1895
-798 595 -182 1476 -352 1935 -375 100 -5 113 -4 143 15 20 13 41 40 53 65 19
43 19 77 17 1553 l-3 1508 -22 35 c-33 53 -67 67 -213 90 -466 71 -1024 226
-1455 404 -354 147 -810 390 -1116 596 -1717 1155 -2768 3035 -2826 5054 l-6
229 194 -6 c107 -4 347 -9 534 -12 187 -3 359 -8 381 -11 l41 -5 7 -152 c21
-471 87 -870 211 -1292 380 -1285 1251 -2385 2415 -3050 472 -269 997 -465
1538 -574 84 -17 171 -31 195 -31 54 0 107 28 132 71 20 33 20 52 20 814 0
429 4 801 9 826 6 34 5 53 -7 75 -13 25 -16 144 -21 818 l-5 789 -23 34 c-17
26 -45 45 -106 74 -157 73 -304 179 -456 327 -367 361 -564 860 -543 1377 20
472 199 884 532 1221 177 179 356 303 578 400 56 25 114 57 130 71 58 56 56
153 -4 212 -65 66 -130 57 -330 -41 -441 -217 -774 -546 -988 -975 -153 -308
-223 -602 -224 -948 -1 -265 33 -477 114 -712 163 -472 499 -888 916 -1133 48
-29 90 -54 93 -57 5 -4 18 -1294 13 -1302 -1 -2 -48 13 -105 34 -506 184 -915
448 -1283 826 -477 491 -783 1089 -900 1758 -13 79 -33 157 -42 174 -27 45
-78 69 -139 64 -66 -4 -107 -34 -129 -91 -16 -41 -16 -51 -1 -148 82 -518 286
-1033 580 -1468 376 -555 896 -997 1506 -1280 118 -55 347 -142 458 -175 l62
-18 0 -211 c0 -116 3 -403 7 -638 6 -423 6 -428 -14 -428 -37 0 -339 79 -498
130 -225 73 -411 148 -620 249 -1408 682 -2410 2001 -2689 3542 -56 306 -70
476 -70 864 -1 394 8 512 64 843 213 1261 935 2405 1998 3163 375 268 883 523
1322 664 152 49 424 118 585 149 232 45 698 95 716 77 9 -8 33 -1205 26 -1226
-5 -11 -21 -15 -66 -15 -89 0 -347 -35 -515 -70 -579 -121 -1155 -403 -1605
-788 -466 -399 -825 -903 -1045 -1468 -83 -213 -156 -466 -156 -539 0 -95 92
-166 187 -145 44 10 99 64 109 107 29 122 103 356 150 475 233 589 607 1080
1110 1459 499 375 1082 600 1709 659 141 13 459 13 600 0 673 -63 1284 -312
1819 -742 134 -108 380 -356 490 -493 356 -444 594 -969 690 -1521 13 -76 27
-174 31 -216 l7 -78 -601 0 -601 0 -4 23 c-3 12 -12 63 -21 112 -95 512 -419
1015 -856 1327 -109 78 -193 127 -347 201 -148 71 -213 83 -270 48 -84 -53
-98 -178 -26 -243 11 -9 66 -37 124 -62 455 -199 822 -585 993 -1046 209 -562
135 -1181 -202 -1681 -77 -115 -204 -263 -276 -323 -61 -50 -85 -91 -85 -143
0 -53 11 -81 45 -115 38 -38 93 -52 148 -37 34 9 65 34 162 133 382 385 589
847 630 1409 l7 87 596 0 597 0 -7 -152 c-34 -798 -375 -1578 -942 -2156 -284
-290 -540 -478 -896 -660 -91 -46 -173 -92 -184 -101 -67 -59 -58 -179 16
-233 52 -37 104 -35 199 7 397 174 864 517 1171 862 501 562 807 1210 912
1933 55 376 45 830 -25 1198 -119 628 -390 1195 -804 1687 -119 141 -359 376
-500 488 -493 395 -1076 656 -1685 756 -113 18 -206 29 -402 47 l-68 6 -1 61
c0 34 -6 312 -13 617 -7 305 -11 557 -10 559 6 7 370 -20 521 -39 396 -51 806
-158 1193 -311 189 -75 556 -260 739 -374 994 -615 1723 -1538 2091 -2645 58
-175 133 -477 165 -660 15 -85 33 -174 42 -197 19 -56 61 -86 127 -90 69 -6
113 20 145 81 l24 47 -22 137 c-229 1414 -1055 2690 -2256 3487 -794 528
-1668 815 -2625 865 -284 15 -306 15 -515 1 -1188 -75 -2188 -469 -3090 -1217
-162 -135 -478 -449 -617 -614 -712 -847 -1128 -1850 -1219 -2944 l-13 -149
-170 7 c-94 3 -313 8 -486 11 -173 3 -356 8 -407 11 l-92 6 4 46 c3 26 10 110
16 187 89 1168 535 2328 1268 3300 230 305 664 764 947 1002 928 780 1976
1258 3159 1443 201 31 230 42 259 104 34 71 12 149 -56 199 -37 28 -101 25
-328 -13 -1702 -284 -3200 -1193 -4243 -2575 -1011 -1339 -1476 -3017 -1301
-4695 191 -1844 1144 -3519 2639 -4638 670 -502 1433 -874 2250 -1098 164 -45
507 -120 678 -149 l37 -6 0 -549 c0 -434 -3 -550 -12 -550 -7 0 -103 13 -213
29 -1265 185 -2450 675 -3460 1431 -1638 1227 -2725 3063 -3025 5110 -16 107
-36 269 -45 360 -10 102 -23 178 -33 200 -58 120 -245 100 -279 -30 -24 -88
67 -738 162 -1165 413 -1858 1456 -3503 2948 -4653 910 -701 1969 -1197 3091
-1447 208 -46 540 -105 706 -124 52 -6 110 -14 128 -17 l32 -5 0 -619 c0 -537
-2 -620 -15 -620 -33 0 -343 42 -515 70 -1748 285 -3388 1056 -4646 2183 -308
277 -651 618 -875 872 -1206 1370 -1989 3132 -2223 5006 -151 1203 -69 2406
239 3540 61 222 211 681 307 934 165 436 395 920 623 1310 516 883 1170 1671
1950 2350 934 812 2030 1444 3176 1830 658 222 1280 357 1949 424 178 18 694
51 795 51 l35 0 0 -604 0 -603 -52 -7 c-29 -3 -81 -6 -115 -6 -89 0 -411 -27
-603 -50 -2341 -285 -4451 -1581 -5769 -3545 -701 -1043 -1148 -2238 -1302
-3480 -27 -218 -23 -264 21 -311 78 -79 196 -60 248 41 5 11 17 83 27 160 236
1997 1209 3787 2765 5085 1148 957 2593 1577 4080 1749 356 41 456 46 930 46
474 0 574 -5 930 -46 2076 -241 3974 -1315 5275 -2985 869 -1114 1421 -2478
1574 -3889 22 -198 41 -454 41 -546 l0 -59 -583 0 -584 0 -6 138 c-9 169 -39
446 -73 652 -299 1827 -1344 3444 -2894 4477 -884 588 -1902 957 -2962 1073
-99 11 -109 10 -152 -8 -59 -26 -86 -70 -86 -137 0 -99 58 -147 195 -160 261
-24 611 -88 910 -165 2502 -643 4385 -2770 4714 -5324 41 -317 46 -404 46
-841 0 -458 -8 -574 -61 -933 -329 -2234 -1847 -4142 -3959 -4977 -167 -66
-498 -175 -694 -229 -90 -24 -176 -53 -190 -64 -14 -10 -35 -40 -45 -65 -17
-41 -18 -51 -7 -89 17 -55 67 -104 115 -114 53 -9 262 45 596 156 576 191
1080 437 1585 773 844 562 1554 1314 2075 2202 45 77 139 255 209 395 425 854
656 1772 688 2728 l6 202 584 0 584 0 -6 -132 c-24 -544 -67 -920 -155 -1353
-273 -1332 -872 -2528 -1791 -3580 -142 -162 -505 -526 -664 -666 -750 -659
-1574 -1153 -2488 -1493 -303 -113 -694 -229 -981 -292 -177 -38 -230 -78
-230 -172 0 -61 31 -114 81 -137 52 -25 116 -16 378 49 682 171 1307 414 1915
743 1367 742 2507 1875 3255 3237 498 908 821 1922 934 2931 41 370 46 463 46
930 0 453 -5 563 -41 890 -156 1423 -700 2793 -1568 3947 -547 729 -1234 1377
-1996 1885 -1021 680 -2203 1127 -3408 1288 -276 37 -465 53 -769 67 l-273 12
0 603 0 603 128 0 c150 0 393 -14 622 -36 1782 -168 3525 -885 4965 -2039 942
-756 1726 -1679 2282 -2690 96 -173 303 -593 388 -785 635 -1432 900 -3056
759 -4640 -152 -1711 -830 -3410 -1923 -4825 -269 -348 -475 -580 -821 -925
-503 -503 -968 -877 -1560 -1254 -760 -486 -1777 -925 -2635 -1140 -650 -162
-1200 -235 -1973 -261 l-172 -6 4 1723 c2 948 5 1739 5 1758 0 19 -2 157 -5
306 l-5 272 118 6 c973 56 1847 344 2633 869 858 573 1528 1388 1925 2342 175
420 295 878 355 1349 23 178 19 214 -27 258 -54 52 -121 62 -183 27 -50 -28
-76 -79 -84 -164 -4 -38 -18 -143 -32 -233 -186 -1216 -832 -2323 -1809 -3096
-614 -485 -1376 -830 -2145 -970 -220 -40 -544 -76 -687 -76 l-63 0 0 1859 0
1858 -22 33 c-43 62 -65 72 -189 80 -133 10 -222 29 -326 70 -435 174 -710
628 -663 1094 46 452 357 817 800 938 74 20 108 23 265 23 157 0 191 -3 265
-23 614 -168 952 -800 745 -1393 -31 -91 -92 -204 -149 -278 -67 -87 -199
-206 -260 -235 -57 -27 -102 -72 -112 -112 -4 -14 3 -757 15 -1652 20 -1525
23 -1629 40 -1662 25 -50 74 -80 129 -80 62 0 310 52 479 100 552 156 1032
391 1479 723 832 617 1419 1491 1668 2482 70 281 109 541 126 854 5 101 12
187 16 190 6 6 643 18 1041 20 l202 1 -5 -147 c-24 -660 -139 -1246 -359
-1828 -647 -1711 -2113 -3017 -3885 -3460 -231 -58 -477 -104 -570 -108 -59
-2 -82 -7 -106 -24 -69 -49 -64 68 -64 -1580 0 -975 4 -1501 10 -1525 6 -21
27 -51 52 -73 l41 -38 106 6 c472 25 1473 276 2225 557 1719 642 3181 1812
4225 3380 638 959 1089 2029 1310 3117 303 1485 199 3103 -292 4558 -475 1406
-1255 2616 -2332 3619 -1395 1298 -3213 2139 -5081 2351 -196 22 -246 21 -286
-3 -46 -29 -72 -77 -72 -134 0 -88 62 -141 176 -152 1949 -182 3856 -1086
5274 -2501 531 -529 942 -1060 1309 -1687 111 -190 335 -628 430 -843 394
-888 627 -1803 711 -2795 21 -255 29 -892 15 -1155 -65 -1176 -370 -2292 -920
-3360 -412 -801 -915 -1495 -1551 -2138 -864 -877 -1801 -1493 -2955 -1944
-435 -170 -1118 -371 -1610 -473 -124 -26 -441 -80 -467 -80 -5 0 -8 258 -8
574 l0 575 48 6 c2360 330 4360 1700 5491 3763 493 898 814 2002 876 3012 7
99 6 107 -17 139 -38 57 -73 76 -133 76 -39 0 -61 -6 -82 -21 -54 -40 -64 -71
-79 -251 -103 -1207 -489 -2328 -1138 -3313 -617 -935 -1462 -1720 -2436
-2262 -645 -359 -1346 -617 -2070 -762 -172 -34 -450 -79 -455 -74 -4 5 -14
1158 -10 1158 30 0 377 73 520 110 1985 508 3565 1993 4189 3939 122 380 208
799 251 1221 22 213 31 731 16 945 -40 580 -151 1116 -338 1629 -780 2151
-2709 3660 -4983 3900 -131 14 -466 36 -548 36 l-32 0 2 597 3 596 125 -2
c368 -6 840 -60 1240 -142 2598 -536 4694 -2487 5419 -5044 94 -329 171 -709
210 -1030 29 -235 28 -231 62 -270 57 -65 149 -71 214 -14 54 48 59 78 40 236
-212 1793 -1055 3430 -2390 4642 -1136 1032 -2542 1681 -4065 1875 -243 32
-699 62 -1010 67 -56 1 -535 -32 -680 -46 -1347 -137 -2620 -636 -3708 -1452
-1332 -1000 -2294 -2421 -2722 -4022 -135 -500 -210 -975 -245 -1543 -6 -91
-9 -108 -23 -108 -10 1 -264 7 -565 14 -301 7 -551 16 -554 20 -9 8 13 395 33
590 73 724 219 1341 493 2094 607 1665 1755 3105 3291 4129 1177 784 2551
1274 3882 1384 166 14 208 29 239 89 38 71 16 152 -54 204 -34 25 -108 25
-342 0 -736 -78 -1472 -256 -2160 -522 -2295 -888 -4154 -2701 -5047 -4922
-28 -69 -91 -237 -140 -375 -269 -756 -415 -1426 -485 -2235 -14 -161 -18
-309 -18 -685 0 -514 9 -674 61 -1090 216 -1747 931 -3386 2044 -4685 229
-268 654 -693 955 -955 1122 -978 2504 -1651 4017 -1956 219 -44 267 -46 316
-10 38 27 67 98 59 146 -7 43 -40 91 -75 109 -15 8 -119 32 -232 55 -1226 244
-2372 744 -3355 1464 -374 274 -730 589 -1140 1008 -1410 1442 -2275 3514
-2344 5619 -4 124 -6 226 -6 228 3 4 1076 -19 1111 -24 l31 -4 6 -228 c33
-1200 386 -2425 1003 -3482 965 -1651 2540 -2880 4364 -3404 300 -87 449 -120
494 -112 81 15 137 109 115 191 -15 54 -56 91 -120 108 -30 8 -137 36 -239 62
-2106 547 -3879 2076 -4742 4089 -316 738 -492 1468 -559 2316 -16 204 -17
772 -1 980 66 859 260 1644 592 2396 547 1235 1448 2304 2575 3055 771 513
1625 869 2530 1053 322 65 734 117 1048 132 l147 7 -2 -599 -3 -599 -165 -12
c-1738 -126 -3317 -987 -4360 -2378 -508 -678 -860 -1446 -1045 -2285 -33
-150 -75 -398 -75 -444 0 -129 159 -198 252 -109 39 37 43 49 67 197 162 995
584 1913 1247 2711 136 164 520 549 683 684 582 484 1211 832 1914 1060 603
195 1199 281 1852 268 294 -6 481 -21 755 -63 1792 -273 3358 -1407 4180
-3029 343 -676 533 -1365 594 -2156 l5 -67 -292 -6 c-161 -3 -441 -8 -624 -12
l-332 -6 -5 34 c-2 18 -12 103 -21 188 -71 674 -323 1362 -712 1949 -186 280
-440 577 -678 794 -618 564 -1337 933 -2129 1091 -249 50 -262 51 -316 24 -78
-40 -107 -135 -64 -208 33 -57 59 -68 214 -95 680 -119 1312 -407 1875 -854
160 -126 495 -463 629 -631 502 -629 796 -1353 888 -2180 19 -174 16 -651 -5
-832 -91 -766 -359 -1440 -814 -2040 -451 -596 -1088 -1080 -1783 -1356 -216
-86 -658 -218 -673 -201 -3 2 -8 288 -12 635 l-7 630 44 13 c301 89 660 279
932 494 132 104 391 366 487 492 242 318 397 627 504 1003 54 192 43 255 -51
302 -49 24 -71 25 -124 4 -56 -23 -77 -58 -110 -184 -193 -735 -688 -1340
-1365 -1670 -138 -67 -311 -137 -319 -129 -2 2 -7 301 -11 664 l-7 660 88 71
c234 186 400 458 470 769 25 112 30 372 9 496 -58 353 -251 671 -534 885 -163
123 -406 226 -605 257 l-78 12 1 420 c0 231 4 500 8 599 l6 179 90 -7 c380
-29 824 -185 1166 -410 485 -320 861 -812 1036 -1356 46 -140 84 -176 182
-168 44 4 60 11 89 38 57 56 61 95 24 214 -167 529 -504 1018 -945 1370 -463
369 -1003 579 -1610 627 -178 14 -211 14 -372 0 -546 -45 -990 -196 -1419
-482 -583 -389 -1017 -1000 -1189 -1674 -35 -139 -75 -356 -75 -411 l0 -34
-52 0 c-47 1 -1189 29 -1196 30 -1 0 0 17 3 38 2 20 12 98 20 172 81 684 359
1374 781 1940 381 512 875 930 1434 1214 199 101 355 168 555 236 138 47 454
130 551 145 87 13 144 75 144 155 0 85 -65 150 -150 150 -25 0 -113 -16 -197
-34 -1106 -249 -2078 -916 -2708 -1861 -138 -208 -217 -344 -311 -540 -209
-437 -342 -885 -403 -1360 -50 -385 -43 -877 19 -1262 243 -1515 1255 -2797
2676 -3392 153 -64 194 -75 238 -67 81 15 138 106 116 186 -17 63 -52 90 -175
139 -753 298 -1433 843 -1884 1511 -375 554 -598 1136 -686 1795 -17 131 -41
512 -33 521 7 6 1225 -20 1232 -27 2 -2 9 -72 15 -156 45 -600 258 -1149 627
-1613 93 -118 350 -371 464 -460 152 -117 207 -150 253 -150 82 0 145 55 154
134 9 74 -13 105 -139 199 -572 425 -930 1021 -1034 1722 -21 144 -29 437 -15
580 33 343 113 625 262 924 248 501 644 899 1144 1152 294 148 628 245 919
266 l89 6 -6 -384 c-4 -211 -7 -481 -7 -600 l0 -215 -92 -18 c-408 -77 -772
-347 -959 -709 -108 -210 -148 -362 -156 -593 -7 -195 9 -311 68 -489 158
-475 547 -816 1044 -913 l90 -18 3 -885 c2 -486 0 -1444 -4 -2128 l-6 -1244
-132 7 c-602 31 -1210 166 -1791 397 -198 79 -584 269 -770 381 -428 257 -734
497 -1101 863 -310 309 -503 543 -729 885 -484 730 -797 1594 -890 2450 -23
219 -31 260 -57 287 -73 78 -193 69 -249 -19 -18 -30 -20 -44 -15 -133 3 -55
15 -172 26 -259 252 -1936 1440 -3621 3184 -4517 745 -382 1540 -595 2408
-645 l118 -6 2 -1763 3 -1764 21 -28 c11 -15 36 -38 54 -50 32 -22 40 -23 294
-23 1074 1 2148 199 3136 580 719 277 1342 596 1924 984 2324 1549 3919 4133
4240 6871 87 738 82 1582 -15 2360 -183 1470 -735 2943 -1565 4176 -1401 2079
-3677 3581 -6164 4068 -763 149 -1478 197 -2300 155z"/>
</g>
</svg>
